<svg width="512" height="512" viewBox="0 0 512 512" fill="none" xmlns="http://www.w3.org/2000/svg">
  <!-- Dark background -->
  <rect width="512" height="512" rx="100" fill="#0a0a0f"/>
  
  <!-- Purple glow -->
  <circle cx="256" cy="256" r="200" fill="rgba(124,106,255,0.08)"/>
  
  <defs>
    <linearGradient id="brainGrad" x1="0" y1="0" x2="512" y2="512" gradientUnits="userSpaceOnUse">
      <stop offset="0%" stop-color="#667eea"/>
      <stop offset="100%" stop-color="#764ba2"/>
    </linearGradient>
  </defs>

  <!-- Brain shape scaled to 512x512 (original was 44x44, scale=11.6) -->
  <path d="M256 70C178.8 70 116 132.8 116 210c0 32.5 10.4 61.5 27.8 84.7C132.4 308.6 126 327.5 126 348c0 45.2 36 81 81 81h49h49c45 0 81-35.8 81-81c0-20.9-5.8-39.4-16.2-54.5C382 270.5 396 241.3 396 210C396 132.8 333.2 70 256 70z" fill="url(#brainGrad)" opacity="0.93"/>
  
  <!-- Center line -->
  <line x1="256" y1="104" x2="256" y2="430" stroke="rgba(255,255,255,0.12)" stroke-width="11.6" stroke-dasharray="23 35"/>
  
  <!-- Left wrinkles -->
  <path d="M168 215 Q151 244 168 273" stroke="rgba(255,255,255,0.25)" stroke-width="13" stroke-linecap="round" fill="none"/>
  <path d="M186 168 Q163 197 186 220" stroke="rgba(255,255,255,0.2)" stroke-width="11.6" stroke-linecap="round" fill="none"/>
  
  <!-- Right wrinkles -->
  <path d="M342 215 Q360 244 342 273" stroke="rgba(255,255,255,0.25)" stroke-width="13" stroke-linecap="round" fill="none"/>
  <path d="M325 168 Q348 197 325 220" stroke="rgba(255,255,255,0.2)" stroke-width="11.6" stroke-linecap="round" fill="none"/>
  
  <!-- Lightning bolt -->
  <path d="M290 104 L209 256 H273 L220 430 L360 232 H290 Z" fill="#ffc107" stroke="#e6a800" stroke-width="7" stroke-linejoin="round"/>
</svg>
